grf
version=1
nRows=23
nColumns=46
inDegrees=yes
endheader
time	ground_force_1_vx	ground_force_1_vy	ground_force_1_vz	ground_force_1_px	ground_force_1_py	ground_force_1_pz	ground_moment_1_mx	ground_moment_1_my	ground_moment_1_mz	ground_force_2_vx	ground_force_2_vy	ground_force_2_vz	ground_force_2_px	ground_force_2_py	ground_force_2_pz	ground_moment_2_mx	ground_moment_2_my	ground_moment_2_mz	ground_force_3_vx	ground_force_3_vy	ground_force_3_vz	ground_force_3_px	ground_force_3_py	ground_force_3_pz	ground_moment_3_mx	ground_moment_3_my	ground_moment_3_mz	ground_force_4_vx	ground_force_4_vy	ground_force_4_vz	ground_force_4_px	ground_force_4_py	ground_force_4_pz	ground_moment_4_mx	ground_moment_4_my	ground_moment_4_mz	ground_force_5_vx	ground_force_5_vy	ground_force_5_vz	ground_force_5_px	ground_force_5_py	ground_force_5_pz	ground_moment_5_mx	ground_moment_5_my	ground_moment_5_mz
0.000000	0.000000	0.000000	0.000000	0.000000	0.000000	0.000000	0.000000	0.000000	0.000000	0.000000	0.000000	0.000000	0.000000	0.000000	0.000000	0.000000	0.000000	0.000000	0.000000	0.000000	0.000000	0.000000	0.000000	0.000000	0.000000	0.000000	0.000000	0.471965	436.674156	-48.303029	0.200430	0.000000	-1.069998	0.000000	4.126151	0.000000	-5.115455	453.517222	46.613514	0.208903	0.000000	-1.399135	0.000000	-3.803259	0.000000
0.000500	0.000000	0.000000	0.000000	0.000000	0.000000	0.000000	0.000000	0.000000	0.000000	0.000000	0.000000	0.000000	0.000000	0.000000	0.000000	0.000000	0.000000	0.000000	0.000000	0.000000	0.000000	0.000000	0.000000	0.000000	0.000000	0.000000	0.000000	0.472583	436.640897	-48.279709	0.200421	0.000000	-1.070014	0.000000	4.124161	0.000000	-5.104234	453.516752	46.603563	0.208884	0.000000	-1.399095	0.000000	-3.804499	0.000000
0.001000	0.000000	0.000000	0.000000	0.000000	0.000000	0.000000	0.000000	0.000000	0.000000	0.000000	0.000000	0.000000	0.000000	0.000000	0.000000	0.000000	0.000000	0.000000	0.000000	0.000000	0.000000	0.000000	0.000000	0.000000	0.000000	0.000000	0.000000	0.473226	436.608054	-48.256227	0.200412	0.000000	-1.070030	0.000000	4.122172	0.000000	-5.092901	453.516793	46.592778	0.208865	0.000000	-1.399054	0.000000	-3.805617	0.000000
0.001500	0.000000	0.000000	0.000000	0.000000	0.000000	0.000000	0.000000	0.000000	0.000000	0.000000	0.000000	0.000000	0.000000	0.000000	0.000000	0.000000	0.000000	0.000000	0.000000	0.000000	0.000000	0.000000	0.000000	0.000000	0.000000	0.000000	0.000000	0.473883	436.575703	-48.232663	0.200402	0.000000	-1.070045	0.000000	4.120187	0.000000	-5.081484	453.517399	46.581151	0.208846	0.000000	-1.399014	0.000000	-3.806610	0.000000
0.002000	0.000000	0.000000	0.000000	0.000000	0.000000	0.000000	0.000000	0.000000	0.000000	0.000000	0.000000	0.000000	0.000000	0.000000	0.000000	0.000000	0.000000	0.000000	0.000000	0.000000	0.000000	0.000000	0.000000	0.000000	0.000000	0.000000	0.000000	0.474538	436.543929	-48.209092	0.200392	0.000000	-1.070061	0.000000	4.118211	0.000000	-5.070012	453.518610	46.568678	0.208827	0.000000	-1.398975	0.000000	-3.807473	0.000000
0.002500	0.000000	0.000000	0.000000	0.000000	0.000000	0.000000	0.000000	0.000000	0.000000	0.000000	0.000000	0.000000	0.000000	0.000000	0.000000	0.000000	0.000000	0.000000	0.000000	0.000000	0.000000	0.000000	0.000000	0.000000	0.000000	0.000000	0.000000	0.475176	436.512833	-48.185579	0.200382	0.000000	-1.070076	0.000000	4.116245	0.000000	-5.058515	453.520450	46.555358	0.208809	0.000000	-1.398937	0.000000	-3.808203	0.000000
0.003000	0.000000	0.000000	0.000000	0.000000	0.000000	0.000000	0.000000	0.000000	0.000000	0.000000	0.000000	0.000000	0.000000	0.000000	0.000000	0.000000	0.000000	0.000000	0.000000	0.000000	0.000000	0.000000	0.000000	0.000000	0.000000	0.000000	0.000000	0.475780	436.482520	-48.162183	0.200371	0.000000	-1.070091	0.000000	4.114289	0.000000	-5.047022	453.522921	46.541201	0.208790	0.000000	-1.398900	0.000000	-3.808794	0.000000
0.003500	0.000000	0.000000	0.000000	0.000000	0.000000	0.000000	0.000000	0.000000	0.000000	0.000000	0.000000	0.000000	0.000000	0.000000	0.000000	0.000000	0.000000	0.000000	0.000000	0.000000	0.000000	0.000000	0.000000	0.000000	0.000000	0.000000	0.000000	0.476326	436.453097	-48.138959	0.200360	0.000000	-1.070106	0.000000	4.112341	0.000000	-5.035559	453.526013	46.526225	0.208771	0.000000	-1.398863	0.000000	-3.809243	0.000000
0.004000	0.000000	0.000000	0.000000	0.000000	0.000000	0.000000	0.000000	0.000000	0.000000	0.000000	0.000000	0.000000	0.000000	0.000000	0.000000	0.000000	0.000000	0.000000	0.000000	0.000000	0.000000	0.000000	0.000000	0.000000	0.000000	0.000000	0.000000	0.476787	436.424661	-48.115956	0.200348	0.000000	-1.070120	0.000000	4.110397	0.000000	-5.024153	453.529709	46.510454	0.208752	0.000000	-1.398828	0.000000	-3.809549	0.000000
0.004500	0.000000	0.000000	0.000000	0.000000	0.000000	0.000000	0.000000	0.000000	0.000000	0.000000	0.000000	0.000000	0.000000	0.000000	0.000000	0.000000	0.000000	0.000000	0.000000	0.000000	0.000000	0.000000	0.000000	0.000000	0.000000	0.000000	0.000000	0.477137	436.397298	-48.093214	0.200336	0.000000	-1.070133	0.000000	4.108452	0.000000	-5.012838	453.533992	46.493916	0.208734	0.000000	-1.398794	0.000000	-3.809712	0.000000
0.005000	0.000000	0.000000	0.000000	0.000000	0.000000	0.000000	0.000000	0.000000	0.000000	0.000000	0.000000	0.000000	0.000000	0.000000	0.000000	0.000000	0.000000	0.000000	0.000000	0.000000	0.000000	0.000000	0.000000	0.000000	0.000000	0.000000	0.000000	0.477348	436.371081	-48.070768	0.200324	0.000000	-1.070147	0.000000	4.106505	0.000000	-5.001649	453.538848	46.476634	0.208716	0.000000	-1.398760	0.000000	-3.809730	0.000000
0.005500	0.000000	0.000000	0.000000	0.000000	0.000000	0.000000	0.000000	0.000000	0.000000	0.000000	0.000000	0.000000	0.000000	0.000000	0.000000	0.000000	0.000000	0.000000	0.000000	0.000000	0.000000	0.000000	0.000000	0.000000	0.000000	0.000000	0.000000	0.477398	436.346066	-48.048641	0.200312	0.000000	-1.070160	0.000000	4.104552	0.000000	-4.990631	453.544255	46.458630	0.208698	0.000000	-1.398729	0.000000	-3.809604	0.000000
0.006000	0.000000	0.000000	0.000000	0.000000	0.000000	0.000000	0.000000	0.000000	0.000000	0.000000	0.000000	0.000000	0.000000	0.000000	0.000000	0.000000	0.000000	0.000000	0.000000	0.000000	0.000000	0.000000	0.000000	0.000000	0.000000	0.000000	0.000000	0.477266	436.322293	-48.026849	0.200299	0.000000	-1.070172	0.000000	4.102589	0.000000	-4.979826	453.550174	46.439918	0.208680	0.000000	-1.398698	0.000000	-3.809333	-0.000000
0.006500	0.000000	0.000000	0.000000	0.000000	0.000000	0.000000	0.000000	0.000000	0.000000	0.000000	0.000000	0.000000	0.000000	0.000000	0.000000	0.000000	0.000000	0.000000	0.000000	0.000000	0.000000	0.000000	0.000000	0.000000	0.000000	0.000000	0.000000	0.476931	436.299795	-48.005409	0.200286	0.000000	-1.070184	0.000000	4.100612	0.000000	-4.969277	453.556554	46.420513	0.208663	0.000000	-1.398668	0.000000	-3.808916	-0.000000
0.007000	0.000000	0.000000	0.000000	0.000000	0.000000	0.000000	0.000000	0.000000	0.000000	0.000000	0.000000	0.000000	0.000000	0.000000	0.000000	0.000000	0.000000	0.000000	0.000000	0.000000	0.000000	0.000000	0.000000	0.000000	0.000000	0.000000	0.000000	0.476371	436.278595	-47.984336	0.200273	0.000000	-1.070195	0.000000	4.098614	0.000000	-4.959023	453.563335	46.400429	0.208646	0.000000	-1.398640	0.000000	-3.808354	-0.000000
0.007500	0.000000	0.000000	0.000000	0.000000	0.000000	0.000000	0.000000	0.000000	0.000000	0.000000	0.000000	0.000000	0.000000	0.000000	0.000000	0.000000	0.000000	0.000000	0.000000	0.000000	0.000000	0.000000	0.000000	0.000000	0.000000	0.000000	0.000000	0.475564	436.258719	-47.963642	0.200259	0.000000	-1.070207	0.000000	4.096586	0.000000	-4.949103	453.570453	46.379683	0.208629	0.000000	-1.398613	0.000000	-3.807648	-0.000000
0.008000	0.000000	0.000000	0.000000	0.000000	0.000000	0.000000	0.000000	0.000000	0.000000	0.000000	0.000000	0.000000	0.000000	0.000000	0.000000	0.000000	0.000000	0.000000	0.000000	0.000000	0.000000	0.000000	0.000000	0.000000	0.000000	0.000000	0.000000	0.474502	436.240188	-47.943340	0.200246	0.000000	-1.070217	0.000000	4.094525	0.000000	-4.939557	453.577831	46.358291	0.208613	0.000000	-1.398588	0.000000	-3.806801	-0.000000
0.008500	0.000000	0.000000	0.000000	0.000000	0.000000	0.000000	0.000000	0.000000	0.000000	0.000000	0.000000	0.000000	0.000000	0.000000	0.000000	0.000000	0.000000	0.000000	0.000000	0.000000	0.000000	0.000000	0.000000	0.000000	0.000000	0.000000	0.000000	0.473183	436.223027	-47.923433	0.200232	0.000000	-1.070227	0.000000	4.092422	0.000000	-4.930424	453.585389	46.336269	0.208597	0.000000	-1.398563	0.000000	-3.805815	-0.000000
0.009000	0.000000	0.000000	0.000000	0.000000	0.000000	0.000000	0.000000	0.000000	0.000000	0.000000	0.000000	0.000000	0.000000	0.000000	0.000000	0.000000	0.000000	0.000000	0.000000	0.000000	0.000000	0.000000	0.000000	0.000000	0.000000	0.000000	0.000000	0.471619	436.207262	-47.903924	0.200218	0.000000	-1.070237	0.000000	4.090274	0.000000	-4.921742	453.593048	46.313629	0.208581	0.000000	-1.398540	0.000000	-3.804692	-0.000000
0.009500	0.000000	0.000000	0.000000	0.000000	0.000000	0.000000	0.000000	0.000000	0.000000	0.000000	0.000000	0.000000	0.000000	0.000000	0.000000	0.000000	0.000000	0.000000	0.000000	0.000000	0.000000	0.000000	0.000000	0.000000	0.000000	0.000000	0.000000	0.469824	436.192914	-47.884810	0.200204	0.000000	-1.070246	0.000000	4.088077	0.000000	-4.913551	453.600739	46.290382	0.208565	0.000000	-1.398518	0.000000	-3.803432	-0.000000
0.010000	0.000000	0.000000	0.000000	0.000000	0.000000	0.000000	0.000000	0.000000	0.000000	0.000000	0.000000	0.000000	0.000000	0.000000	0.000000	0.000000	0.000000	0.000000	0.000000	0.000000	0.000000	0.000000	0.000000	0.000000	0.000000	0.000000	0.000000	0.467814	436.179988	-47.866088	0.200190	0.000000	-1.070254	0.000000	4.085825	0.000000	-4.905893	453.608402	46.266539	0.208550	0.000000	-1.398497	0.000000	-3.802033	-0.000000
0.010500	0.000000	0.000000	0.000000	0.000000	0.000000	0.000000	0.000000	0.000000	0.000000	0.000000	0.000000	0.000000	0.000000	0.000000	0.000000	0.000000	0.000000	0.000000	0.000000	0.000000	0.000000	0.000000	0.000000	0.000000	0.000000	0.000000	0.000000	0.465607	436.168472	-47.847747	0.200176	0.000000	-1.070262	0.000000	4.083517	0.000000	-4.898805	453.615981	46.242112	0.208535	0.000000	-1.398477	0.000000	-3.800493	-0.000000
0.011000	0.000000	0.000000	0.000000	0.000000	0.000000	0.000000	0.000000	0.000000	0.000000	0.000000	0.000000	0.000000	0.000000	0.000000	0.000000	0.000000	0.000000	0.000000	0.000000	0.000000	0.000000	0.000000	0.000000	0.000000	0.000000	0.000000	0.000000	0.463227	436.158341	-47.829771	0.200162	0.000000	-1.070270	0.000000	4.081151	0.000000	-4.892320	453.623416	46.217114	0.208520	0.000000	-1.398458	0.000000	-3.798808	-0.000000
